<svg width="169" height="169" viewBox="0 0 169 169" fill="none" xmlns="http://www.w3.org/2000/svg">
<path d="M154.146 39.6094H133.998C137.113 35.4689 138.963 30.3246 138.963 24.7559C138.963 11.1055 127.857 0 114.207 0C105.984 0 99.9213 2.94595 95.1255 9.2709C91.1134 14.5627 88.1797 21.9512 84.5 31.2865C80.8203 21.9509 77.8866 14.5627 73.8745 9.2709C69.0788 2.94595 63.0155 0 54.793 0C41.1426 0 30.0371 11.1055 30.0371 24.7559C30.0371 30.3246 31.8865 35.4689 35.0018 39.6094H14.8535C6.66329 39.6094 0 46.2727 0 54.4629V64.3652C0 70.8199 4.13951 76.3233 9.90234 78.3671V154.146C9.90234 162.337 16.5656 169 24.7559 169H144.244C152.434 169 159.098 162.337 159.098 154.146V78.3671C164.86 76.3233 169 70.8199 169 64.3652V54.4629C169 46.2727 162.337 39.6094 154.146 39.6094ZM93.5884 35.2325C101.173 15.9896 104.057 9.90234 114.207 9.90234C122.397 9.90234 129.061 16.5656 129.061 24.7559C129.061 32.9461 122.397 39.6094 114.207 39.6094H91.8564C92.4631 38.0861 93.0418 36.6195 93.5884 35.2325ZM54.793 9.90234C64.9432 9.90234 67.8268 15.9896 75.4116 35.2325C75.9582 36.6195 76.5369 38.0861 77.1435 39.6094H54.793C46.6027 39.6094 39.9395 32.9461 39.9395 24.7559C39.9395 16.5656 46.6027 9.90234 54.793 9.90234ZM64.6953 159.098H24.7559C22.0258 159.098 19.8047 156.877 19.8047 154.146V79.2188H64.6953V159.098ZM64.6953 69.3164H14.8535C12.1234 69.3164 9.90234 67.0953 9.90234 64.3652V54.4629C9.90234 51.7328 12.1234 49.5117 14.8535 49.5117H64.6953V69.3164ZM94.4023 159.098H74.5977V49.5117C75.6351 49.5117 88.7118 49.5117 94.4023 49.5117V159.098ZM149.195 154.146C149.195 156.877 146.974 159.098 144.244 159.098H104.305V79.2188H149.195V154.146ZM159.098 64.3652C159.098 67.0953 156.877 69.3164 154.146 69.3164H104.305V49.5117H154.146C156.877 49.5117 159.098 51.7328 159.098 54.4629V64.3652Z" fill="#6BC0F1"/>
</svg>
