<svg width="43" height="42" viewBox="0 0 43 42" fill="none" xmlns="http://www.w3.org/2000/svg">
<path d="M18.2886 42C17.0355 41.5882 15.8162 41.2106 14.5631 40.7988C16.1549 34.1749 20.9641 28.615 20.4223 21.4763C17.0016 21.0988 15.4437 19.8633 15.7824 17.8384C11.5489 17.0147 9.92326 13.0678 7.2477 10.3222C4.74149 7.71384 2.40461 4.89956 0 2.15392C2.37074 -0.660359 2.84489 -0.763321 4.84309 2.1196C6.80742 4.89956 8.33147 7.9884 10.2958 10.8027C11.5828 12.6903 13.1746 14.4063 15.5114 15.1271C16.4259 12.7933 17.6112 12.2098 20.3545 12.6903C20.5239 12.7246 20.7948 12.656 20.9641 12.553C23.572 10.2879 26.8233 9.94467 30.0068 9.1553C33.6646 8.26297 37.1868 6.85583 40.8107 5.79189C41.3187 5.62029 42.5379 5.99781 42.5379 6.20374C42.6395 7.16471 43.7572 8.57185 42.0976 9.08666C39.9978 9.73875 37.7964 10.2536 35.6289 10.6654C32.7163 11.2145 29.7359 11.4891 26.8571 12.1069C25.604 12.3814 24.4525 13.2051 23.2333 13.7886C24.1138 15.9851 24.6896 17.907 22.8946 19.6574C22.7253 19.829 22.8607 20.3781 22.8946 20.7556C23.0639 23.0894 23.1656 25.3889 21.8786 27.5511C21.5399 28.1345 21.6076 28.9925 21.4383 29.7133C20.3545 33.6944 19.3385 37.7443 18.2886 42Z" fill="#FF7F08"/>
</svg>
