<svg width="49" height="49" viewBox="0 0 49 49" fill="none" xmlns="http://www.w3.org/2000/svg">
<path d="M28.5834 2.45007H20.4167C19.966 2.45007 19.6001 2.81595 19.6001 3.26671C19.6001 3.71747 19.966 4.08334 20.4167 4.08334H28.5834C29.0341 4.08334 29.4 3.71747 29.4 3.26671C29.4 2.81595 29.0341 2.45007 28.5834 2.45007Z" fill="#FF7F08"/>
<path d="M34.3 2.45007H33.4834C33.0326 2.45007 32.6667 2.81595 32.6667 3.26671C32.6667 3.71747 33.0326 4.08334 33.4834 4.08334H34.3C34.7508 4.08334 35.1167 3.71747 35.1167 3.26671C35.1167 2.81595 34.7508 2.45007 34.3 2.45007Z" fill="#FF7F08"/>
<path d="M25.5143 41.65H23.4865C22.2444 41.65 21.2334 42.661 21.2334 43.9032V44.2976C21.2334 45.5398 22.2444 46.55 23.4857 46.55H25.5135C26.7556 46.55 27.7666 45.5398 27.7666 44.2976V43.9032C27.7666 42.661 26.7556 41.65 25.5143 41.65ZM26.1334 44.2976C26.1334 44.639 25.8557 44.9167 25.5144 44.9167H23.4865C23.1444 44.9167 22.8666 44.639 22.8666 44.2976V43.9032C22.8666 43.561 23.1443 43.2833 23.4865 43.2833H25.5135C25.8557 43.2833 26.1334 43.5609 26.1334 43.9032V44.2976Z" fill="#FF7F08"/>
<path d="M35.4319 0H13.5689C11.9413 0 10.6166 1.32463 10.6166 2.95225V46.0478C10.6166 47.6754 11.9413 49 13.5689 49H35.431C37.0586 49 38.3833 47.6754 38.3833 46.0486V2.95225C38.3834 1.32463 37.0587 0 35.4319 0ZM36.75 46.0478C36.75 46.7746 36.1587 47.3666 35.4319 47.3666H13.5689C12.8413 47.3666 12.25 46.7745 12.25 46.0485V2.95225C12.25 2.22538 12.8413 1.63337 13.5689 1.63337H35.431C36.1586 1.63337 36.7499 2.22548 36.7499 2.95225V46.0478H36.75Z" fill="#FF7F08"/>
<path d="M37.5666 4.90002H11.4334C10.9826 4.90002 10.6167 5.2659 10.6167 5.71666V40.0167C10.6167 40.4674 10.9826 40.8333 11.4334 40.8333H37.5667C38.0175 40.8333 38.3834 40.4674 38.3834 40.0167V5.71666C38.3834 5.2659 38.0175 4.90002 37.5666 4.90002ZM36.75 39.2H12.25V6.53339H36.75V39.2Z" fill="#FF7F08"/>
</svg>
