<svg width="45" height="45" viewBox="0 0 45 45" fill="none" xmlns="http://www.w3.org/2000/svg">
<g clip-path="url(#clip0)">
<path d="M44.3679 40.2889C38.3678 40.0425 32.4003 39.1922 26.5861 37.761C32.1834 36.1758 38.145 35.3726 44.3409 35.3726C44.7049 35.3726 45.0001 35.0774 45.0001 34.7134C45.0001 34.3493 44.7049 34.0542 44.3409 34.0542C37.2494 34.0542 30.454 35.0866 24.1434 37.1226C23.9911 37.0805 23.8385 37.0401 23.6864 36.9972C21.9343 36.5028 20.1218 36.0599 18.2994 35.6809C17.9426 35.6063 17.594 35.8356 17.5198 36.192C17.4457 36.5484 17.6745 36.8975 18.0309 36.9716C19.8234 37.3444 21.6057 37.7799 23.3283 38.266C30.1485 40.1906 37.209 41.3145 44.3137 41.6061C44.323 41.6065 44.3321 41.6066 44.3412 41.6066C44.6928 41.6066 44.9849 41.329 44.9994 40.9745C45.0144 40.6108 44.7316 40.3038 44.3679 40.2889Z" fill="#FF7F08"/>
<path d="M15.3475 35.1233C10.5837 34.3121 5.64188 33.9009 0.65918 33.9009C0.295137 33.9009 0 34.196 0 34.5601C0 34.9241 0.295137 35.2192 0.65918 35.2192C5.56796 35.2192 10.4353 35.6242 15.1262 36.4229C15.1637 36.4293 15.2009 36.4323 15.2377 36.4323C15.5531 36.4323 15.832 36.2051 15.8868 35.8837C15.9478 35.5247 15.7064 35.1843 15.3475 35.1233Z" fill="#FF7F08"/>
<path d="M32.6768 21.8905C32.7239 22.2192 33.0058 22.4563 33.3285 22.4563C33.3596 22.4563 33.3911 22.4541 33.4229 22.4495C33.7832 22.3978 34.0334 22.0638 33.9819 21.7034C33.7282 19.934 33.0266 18.2435 31.9528 16.8148C31.7341 16.5237 31.3208 16.465 31.0299 16.6838C30.7389 16.9025 30.6802 17.3157 30.8989 17.6067C31.8397 18.8587 32.4545 20.3401 32.6768 21.8905Z" fill="#FF7F08"/>
<path d="M20.1402 11.5134C19.8343 12.1274 19.5538 12.7468 19.3019 13.3581C17.1978 14.2348 15.4313 15.7648 14.2583 17.6939L14.0168 16.3706C13.9514 16.0125 13.6082 15.7754 13.25 15.8406C12.8918 15.906 12.6545 16.2493 12.7199 16.6074L13.293 19.747C12.9151 20.84 12.7092 22.0124 12.7092 23.2323C12.7092 25.2486 13.2675 27.1384 14.2404 28.7521C11.9675 26.4349 10.5634 23.2627 10.5634 19.7681C10.5634 15.1597 13.0555 10.8805 17.067 8.60023C17.3835 8.42031 17.4942 8.01795 17.3143 7.70137C17.1344 7.38487 16.732 7.27422 16.4155 7.45404C14.278 8.66904 12.5335 10.3998 11.2996 12.4367L10.9858 11.2648C10.8917 10.9132 10.5303 10.7041 10.1785 10.7985C9.82689 10.8927 9.61815 11.2541 9.71228 11.6058L10.4013 14.1793C9.65155 15.9194 9.24497 17.8166 9.24497 19.7681C9.24497 21.1728 9.4516 22.5299 9.83445 23.8118L9.33726 23.7457C8.97567 23.6975 8.64494 23.9515 8.59695 24.3123C8.54896 24.6731 8.80262 25.0046 9.1635 25.0526L10.3325 25.2079C12.469 30.3212 17.5218 33.9239 23.4007 33.9239C30.4061 33.9239 36.2384 28.8084 37.3606 22.1168L39.2 20.1879C39.4512 19.9244 39.4414 19.5072 39.1779 19.2559C38.9144 19.0046 38.4972 19.0145 38.2459 19.2781L37.5535 20.0042C37.5548 19.9255 37.5565 19.8471 37.5565 19.7681C37.5565 17.0731 36.7835 14.4803 35.3977 12.2641V9.08951C35.3977 8.72547 35.1026 8.43033 34.7385 8.43033C34.3745 8.43033 34.0793 8.72547 34.0793 9.08951V10.4832C33.0426 9.28841 31.8005 8.25807 30.386 7.45404C30.0695 7.27413 29.6671 7.38479 29.4872 7.70137C29.3073 8.01786 29.4181 8.42023 29.7346 8.60023C33.143 10.5377 35.4535 13.9187 36.0714 17.7182L35.6159 17.3992C35.3177 17.1904 34.9067 17.2629 34.6978 17.561C34.489 17.8592 34.5615 18.2703 34.8596 18.4791L36.2325 19.4405C36.2353 19.5496 36.238 19.6586 36.238 19.768C36.238 23.273 34.8255 26.4539 32.5406 28.7728C33.2603 27.586 33.7505 26.2645 33.9646 24.8864C34.0205 24.5267 33.7741 24.1897 33.4145 24.1338C33.0548 24.0781 32.7178 24.3243 32.6618 24.6839C32.0493 28.625 28.9263 31.755 25.059 32.4557C26.3974 30.8254 28.4189 27.6958 28.8654 23.2753C29.3711 23.0124 30.3376 22.4025 30.9579 21.3344C31.1408 21.0196 31.0338 20.6162 30.7189 20.4334C30.4043 20.2505 30.0007 20.3575 29.8179 20.6724C29.5771 21.087 29.2563 21.4105 28.9541 21.6514C28.9718 19.6489 28.6577 17.4186 27.8409 14.977C28.2084 15.1755 28.5653 15.3982 28.9079 15.6475C29.2024 15.8617 29.6146 15.7966 29.8288 15.5022C30.043 15.2078 29.9779 14.7955 29.6835 14.5814C28.9048 14.0149 28.0649 13.563 27.1827 13.2289C26.9478 12.667 26.687 12.0952 26.3969 11.5131C26.2346 11.1873 25.8389 11.0547 25.513 11.217C25.1871 11.3793 25.0546 11.7751 25.2169 12.1009C25.3259 12.3197 25.4301 12.5367 25.5307 12.7524C24.836 12.6123 24.1235 12.5404 23.4005 12.5404C22.5672 12.5404 21.7558 12.6363 20.9769 12.8176C21.0876 12.5784 21.2012 12.3393 21.3199 12.1009C21.4822 11.775 21.3497 11.3793 21.0238 11.217C20.6983 11.0549 20.3026 11.1876 20.1402 11.5134ZM26.1854 14.28C28.1584 19.3343 27.841 23.4595 26.8363 26.5215L25.5444 23.5231C25.4003 23.1888 25.0126 23.0343 24.6782 23.1786C24.3439 23.3226 24.1896 23.7104 24.3337 24.0447L26.1499 28.2601C25.7254 29.1741 25.2572 29.9557 24.8131 30.5991C24.5821 30.5301 23.0791 30.0403 21.8072 28.6505L22.4139 27.039C22.5421 26.6983 22.3699 26.3181 22.0293 26.1898C21.6886 26.0616 21.3084 26.2337 21.1801 26.5744L20.8826 27.3647C20.6461 26.9372 20.4412 26.4578 20.2857 25.9203C20.1845 25.5706 19.8189 25.3693 19.4693 25.4703C19.1196 25.5715 18.9181 25.9371 19.0193 26.2867C20.0414 29.819 22.8037 31.2444 23.9754 31.702C23.6204 32.1264 23.3258 32.428 23.1457 32.6022C23.0798 32.6009 23.0143 32.5988 22.9487 32.5966C22.9367 32.5953 22.925 32.5935 22.9128 32.5929C19.5096 32.4185 16.6106 30.4445 15.1144 27.6195C15.2212 27.0937 15.6515 25.4034 16.9357 24.2798C17.2096 24.0401 17.2374 23.6236 16.9977 23.3497C16.7579 23.0757 16.3415 23.0479 16.0676 23.2876C15.2369 24.0144 14.6986 24.9042 14.3534 25.6911C14.1412 24.9067 14.0278 24.0822 14.0278 23.2322C14.0278 18.0637 18.2327 13.8589 23.4011 13.8589C24.3575 13.859 25.293 14.0028 26.1854 14.28Z" fill="#FF7F08"/>
<path d="M7.80055 10.3605C7.90602 10.4232 8.02203 10.4531 8.13655 10.4531C8.36111 10.4531 8.58014 10.3383 8.70371 10.1318C8.71189 10.1182 9.53964 8.7535 11.3183 7.41123C13.6919 5.61993 16.548 4.71167 19.8073 4.71167C20.1713 4.71167 20.4665 4.41653 20.4665 4.05249C20.4665 3.68845 20.1713 3.39331 19.8073 3.39331C17.3393 3.39331 15.2942 3.8949 13.6542 4.57518L11.8847 3.95748C11.5408 3.83733 11.1651 4.01892 11.0451 4.36257C10.9251 4.70631 11.1065 5.08222 11.4502 5.20219L11.9922 5.39142C11.4105 5.72505 10.9033 6.06976 10.4708 6.39935C8.50763 7.8956 7.60728 9.39589 7.56992 9.45899C7.38483 9.77171 7.48818 10.1746 7.80055 10.3605Z" fill="#FF7F08"/>
<path d="M2.96594 8.85279C3.02377 8.85279 3.08257 8.84514 3.1411 8.82906L3.70018 8.67534C3.54575 9.09493 3.41708 9.54625 3.32884 10.0272C3.26301 10.3852 3.50005 10.7288 3.85803 10.7946C3.89828 10.8019 3.93836 10.8055 3.97791 10.8055C4.28983 10.8055 4.56713 10.5831 4.62549 10.2654C5.10089 7.67743 7.01779 6.03906 7.03703 6.0228C7.31565 5.78954 7.353 5.3746 7.12027 5.09538C6.88718 4.81562 6.47146 4.77791 6.19188 5.011C6.13361 5.0596 5.25637 5.80254 4.46658 7.09744L2.79165 7.55798C2.44062 7.65449 2.23434 8.0173 2.33075 8.36833C2.41117 8.66075 2.67651 8.85279 2.96594 8.85279Z" fill="#FF7F08"/>
<path d="M33.1559 33.9239C33.3236 33.9076 36.4149 33.5815 39.334 31.4243H42.0337C42.3977 31.4243 42.6929 31.1292 42.6929 30.7652C42.6929 30.4011 42.3977 30.106 42.0337 30.106H40.8491C41.2747 29.671 41.6857 29.1878 42.0715 28.6495C42.2836 28.3535 42.2155 27.9418 41.9195 27.7297C41.6235 27.5177 41.2118 27.5857 40.9998 27.8816C39.6926 29.7061 38.0328 30.837 36.5716 31.5329L36.8714 30.3637C36.9619 30.0111 36.7493 29.6518 36.3966 29.5615C36.0442 29.4711 35.6847 29.6837 35.5944 30.0364L35.0547 32.1413C33.9139 32.5179 33.1156 32.6065 33.092 32.6088C32.7301 32.6446 32.4655 32.9666 32.5006 33.3286C32.5338 33.6692 32.8206 33.9239 33.1559 33.9239Z" fill="#FF7F08"/>
<path d="M17.4377 20.739C17.5111 20.7653 17.5862 20.7778 17.66 20.7778C17.9305 20.7778 18.1841 20.6101 18.2806 20.3409C18.2862 20.3254 18.5162 19.7058 19.0469 18.9859L21.0484 19.1241C21.0638 19.1251 21.0792 19.1257 21.0944 19.1257C21.4377 19.1257 21.7273 18.8597 21.7514 18.5119C21.7765 18.1488 21.5024 17.834 21.1392 17.8089L20.2643 17.7484C21.1269 17.1051 22.3065 16.6335 23.8714 16.7784C24.2338 16.8116 24.5549 16.5453 24.5885 16.1827C24.622 15.8202 24.3553 15.4992 23.9929 15.4656C21.3073 15.2173 19.5547 16.4391 18.5576 17.508C17.4946 18.6475 17.0577 19.8456 17.0396 19.896C16.9167 20.2388 17.0949 20.6162 17.4377 20.739Z" fill="#FF7F08"/>
</g>
<defs>
<clipPath id="clip0">
<rect width="45" height="45" fill="white"/>
</clipPath>
</defs>
</svg>
