<svg width="37" height="47" viewBox="0 0 37 47" fill="none" xmlns="http://www.w3.org/2000/svg">
<g clip-path="url(#clip0)">
<path d="M35.926 6.84222L29.6691 2.40759L1.19013 41.4009L7.44699 45.8356L35.926 6.84222Z" stroke="#D57932" stroke-width="2" stroke-miterlimit="10"/>
<path d="M29.7785 0.239796C29.6162 2.55782 29.3728 4.71599 29.3728 6.79422C29.3728 7.83333 29.3728 8.79252 29.3728 9.83163C29.3728 10.2313 29.454 10.9507 29.3728 11.5901C29.2917 12.2296 29.2105 12.7891 29.1294 13.4286C28.5614 15.9065 27.1009 17.9847 26.0461 19.983C24.9101 21.9813 23.9364 24.0595 22.8004 26.2177C21.6645 28.3759 20.1228 30.2942 18.3377 31.8129C16.6338 33.4116 14.7676 34.9303 12.6579 36.0493C11.6031 36.6088 10.5483 37.1684 9.33115 37.568C9.00659 37.648 8.76316 37.8078 8.4386 37.8878L7.95176 38.0476L7.6272 38.1276C7.14036 38.2075 6.73466 38.3673 6.24781 38.5272C5.35527 38.8469 4.38159 39.3265 3.4079 39.8861C2.43422 40.4456 1.54167 41.085 0.486848 41.6446L0.0811462 41.3248C0.486848 40.2058 0.97369 39.0867 1.62281 38.0476C2.27194 37.0085 3.16448 36.0493 4.13816 35.25C4.62501 34.8503 5.19299 34.4507 5.76097 34.131L6.16667 33.8912L6.49123 33.7313L7.30264 33.4116L9.98027 31.733C11.7654 30.534 13.6316 29.4949 15.4978 28.2959L18.1754 26.4575C19.068 25.818 19.9605 25.2585 20.7719 24.5391C22.4759 23.1803 23.9364 21.4218 24.6667 19.3435C25.3969 17.2653 25.2347 15.0272 25.1535 13.0289C25.1535 12.5493 25.0724 11.9898 25.0724 11.5102C25.0724 10.9507 25.0724 10.551 25.0724 9.91156C25.0724 8.63265 25.3158 7.43367 25.6404 6.23469C26.2895 3.83674 27.4254 1.59864 29.3728 0L29.7785 0.239796Z" fill="#D57932"/>
<path d="M22.557 12.1497C20.5285 13.3486 18.6623 14.7075 16.8772 16.3061C15.0921 17.8248 13.4693 19.5833 12.2522 21.5816C11.0351 23.5799 9.98028 25.5782 8.92545 27.6565C7.87063 29.7347 6.73466 31.8129 6.24782 34.2109C6.16668 34.6905 6.08554 35.1701 6.08554 35.5697C6.89694 34.3708 7.87063 33.3316 9.00659 32.5323C9.08773 31.0136 9.33115 29.4949 9.89914 28.0561C10.7105 25.9779 12.0899 24.2194 13.7127 22.7007C14.5241 21.9014 15.3355 21.2619 16.2281 20.6225C17.1206 19.983 17.932 19.2636 18.8246 18.6242C18.9057 18.5442 18.9869 18.5442 18.9869 18.4643C20.4474 15.9065 21.6645 13.2687 24.0176 11.3503C23.5307 11.5901 23.0439 11.9099 22.557 12.1497Z" fill="#D57932"/>
</g>
<defs>
<clipPath id="clip0">
<rect width="37" height="47" fill="white"/>
</clipPath>
</defs>
</svg>
