<svg width="46" height="46" viewBox="0 0 46 46" fill="none" xmlns="http://www.w3.org/2000/svg">
<path d="M23 7.74097C14.5861 7.74097 7.74094 14.5862 7.74094 23C7.74094 31.4139 14.5861 38.2591 23 38.2591C31.4139 38.2591 38.2591 31.4139 38.2591 23C38.2591 14.5862 31.4139 7.74097 23 7.74097ZM27.4711 22.7655C27.4186 21.7583 27.0261 20.7986 26.3576 20.0433L36.5908 18.9509C37.1498 20.8264 37.3141 22.7975 37.0733 24.7397C36.8325 26.6819 36.1919 28.5532 35.1918 30.2354L27.4711 22.7655ZM23 26.3992C22.3277 26.3992 21.6705 26.1998 21.1115 25.8263C20.5525 25.4528 20.1169 24.9219 19.8596 24.3008C19.6023 23.6797 19.535 22.9963 19.6662 22.3369C19.7973 21.6775 20.1211 21.0718 20.5964 20.5965C21.0718 20.1211 21.6775 19.7974 22.3369 19.6662C22.9962 19.535 23.6797 19.6024 24.3008 19.8596C24.9219 20.1169 25.4528 20.5526 25.8263 21.1116C26.1998 21.6705 26.3991 22.3277 26.3991 23C26.3981 23.9012 26.0396 24.7652 25.4024 25.4024C24.7652 26.0397 23.9012 26.3981 23 26.3992ZM36.2334 17.9044L25.1698 19.0854C24.554 18.7426 23.8654 18.5511 23.161 18.5268L28.4675 9.91599C30.2318 10.6582 31.8287 11.748 33.1629 13.1204C34.4971 14.4928 35.5414 16.1198 36.2334 17.9044ZM27.4382 9.53092L21.7947 18.6889C21.195 18.8579 20.6371 19.1498 20.1562 19.5459C19.6753 19.942 19.282 20.4337 19.0012 20.9899L15.8241 10.7733C17.5604 9.75242 19.4944 9.11358 21.4972 8.89939C23.5 8.6852 25.5254 8.9006 27.4383 9.53119L27.4382 9.53092ZM14.8832 11.3786L18.525 23.0892C18.5319 23.4572 18.5844 23.823 18.6811 24.1782L8.847 22.1228C8.98001 19.9932 9.59188 17.921 10.637 16.0607C11.6822 14.2004 13.1336 12.5999 14.8832 11.3786ZM8.82185 23.219L19.2176 25.3918C19.7583 26.2443 20.57 26.8902 21.5222 27.2256L12.7004 32.7377C10.2584 30.1642 8.87386 26.7663 8.82185 23.219ZM13.4937 33.5135L23.1609 27.4732C23.8714 27.4485 24.5657 27.2539 25.1854 26.9054L24.3769 37.1138C23.9236 37.1578 23.4643 37.181 22.9996 37.181C19.4851 37.1837 16.0957 35.8761 13.4936 33.5135H13.4937ZM25.4707 36.9651L26.3409 25.9766C26.8128 25.4487 27.1526 24.8162 27.3324 24.1313L34.5937 31.1571C32.4375 34.2203 29.1586 36.3077 25.4707 36.9651Z" fill="#FF7F08"/>
<path d="M3.23438 0.898438C2.61506 0.899127 2.0213 1.14546 1.58338 1.58338C1.14546 2.0213 0.899127 2.61506 0.898438 3.23438V10.7081C0.898438 10.8511 0.955231 10.9882 1.05633 11.0893C1.15742 11.1904 1.29453 11.2472 1.4375 11.2472C1.58047 11.2472 1.71758 11.1904 1.81867 11.0893C1.91977 10.9882 1.97656 10.8511 1.97656 10.7081V3.23438C1.97692 2.90089 2.10955 2.58117 2.34536 2.34536C2.58117 2.10955 2.90089 1.97692 3.23438 1.97656H11.3314C11.4743 1.97656 11.6114 1.91977 11.7125 1.81867C11.8136 1.71758 11.8704 1.58047 11.8704 1.4375C11.8704 1.29453 11.8136 1.15742 11.7125 1.05633C11.6114 0.955231 11.4743 0.898438 11.3314 0.898438H3.23438Z" fill="#FF7F08"/>
<path d="M44.5625 34.3225C44.4195 34.3225 44.2824 34.3793 44.1813 34.4804C44.0802 34.5815 44.0234 34.7186 44.0234 34.8616V42.7656C44.0231 43.0991 43.8904 43.4188 43.6546 43.6546C43.4188 43.8904 43.0991 44.023 42.7656 44.0234H35.2585C35.1155 44.0234 34.9784 44.0802 34.8773 44.1813C34.7762 44.2824 34.7194 44.4195 34.7194 44.5624C34.7194 44.7054 34.7762 44.8425 34.8773 44.9436C34.9784 45.0447 35.1155 45.1015 35.2585 45.1015H42.7656C43.3849 45.1008 43.9787 44.8545 44.4166 44.4166C44.8545 43.9786 45.1009 43.3849 45.1016 42.7656V34.8616C45.1016 34.7186 45.0448 34.5815 44.9437 34.4804C44.8426 34.3793 44.7055 34.3225 44.5625 34.3225Z" fill="#FF7F08"/>
<path d="M42.7656 0.898438H35.4094C35.2664 0.898438 35.1293 0.955231 35.0282 1.05633C34.9271 1.15742 34.8703 1.29453 34.8703 1.4375C34.8703 1.58047 34.9271 1.71758 35.0282 1.81867C35.1293 1.91977 35.2664 1.97656 35.4094 1.97656H42.7656C43.0991 1.97692 43.4188 2.10955 43.6546 2.34536C43.8904 2.58117 44.0231 2.90089 44.0234 3.23438V10.3307C44.0234 10.4737 44.0802 10.6108 44.1813 10.7119C44.2824 10.813 44.4195 10.8697 44.5625 10.8697C44.7055 10.8697 44.8426 10.813 44.9437 10.7119C45.0448 10.6108 45.1016 10.4737 45.1016 10.3307V3.23438C45.1009 2.61506 44.8545 2.0213 44.4166 1.58338C43.9787 1.14546 43.3849 0.899127 42.7656 0.898438Z" fill="#FF7F08"/>
<path d="M10.1992 44.0234H3.23438C2.90089 44.0231 2.58117 43.8904 2.34536 43.6546C2.10955 43.4188 1.97692 43.0991 1.97656 42.7656V35.8429C1.97656 35.6999 1.91977 35.5628 1.81867 35.4617C1.71758 35.3606 1.58047 35.3038 1.4375 35.3038C1.29453 35.3038 1.15742 35.3606 1.05633 35.4617C0.955231 35.5628 0.898438 35.6999 0.898438 35.8429V42.7656C0.899127 43.3849 1.14546 43.9787 1.58338 44.4166C2.0213 44.8545 2.61506 45.1009 3.23438 45.1016H10.1992C10.3421 45.1016 10.4792 45.0448 10.5803 44.9437C10.6814 44.8426 10.7382 44.7055 10.7382 44.5625C10.7382 44.4195 10.6814 44.2824 10.5803 44.1813C10.4792 44.0802 10.3421 44.0234 10.1992 44.0234Z" fill="#FF7F08"/>
</svg>
