<svg width="50" height="50" viewBox="0 0 50 50" fill="none" xmlns="http://www.w3.org/2000/svg">
<path d="M49.2816 47.0232H0.718391C0.321552 47.0232 0 46.7017 0 46.3048V3.69508C0 3.29824 0.321552 2.97668 0.718391 2.97668H44.3023C44.6991 2.97668 45.0207 3.29824 45.0207 3.69508V24.9385H49.2816C49.6784 24.9385 50 25.26 50 25.6569V46.3048C50 46.7017 49.6784 47.0232 49.2816 47.0232ZM13.0747 45.5865H48.5632V26.3752H33.7066C33.3098 26.3752 32.9882 26.0537 32.9882 25.6569V24.2738H31.2147C30.8178 24.2738 30.4963 23.9523 30.4963 23.5554C30.4963 23.1586 30.8178 22.837 31.2147 22.837H32.9882V18.1913C32.9882 17.7945 33.3098 17.4729 33.7066 17.4729C34.1034 17.4729 34.425 17.7945 34.425 18.1913V24.9385H38.6V4.41347H34.425V9.66634C34.425 10.0632 34.1034 10.3847 33.7066 10.3847C33.3098 10.3847 32.9882 10.0632 32.9882 9.66634V7.46318H21.6954C21.2986 7.46318 20.977 7.14163 20.977 6.74479V4.41347H18.3543V7.75053C18.3543 8.14737 18.0328 8.46893 17.6359 8.46893C17.2391 8.46893 16.9175 8.14737 16.9175 7.75053V4.41347H16.1399V6.26605C16.1399 6.66289 15.8184 6.98444 15.4216 6.98444H15.1977C15.3261 7.27783 15.3977 7.60197 15.3977 7.9422V9.81002C15.3977 11.1304 14.3236 12.2046 13.0032 12.2046C11.6828 12.2046 10.6086 11.1304 10.6086 9.81002V7.9422C10.6086 7.60168 10.6802 7.27783 10.8086 6.98444H10.5848C10.1879 6.98444 9.86638 6.66289 9.86638 6.26605V4.41347H7.25575V13.9287C7.25575 14.3255 6.9342 14.6471 6.53736 14.6471H5.60345V18.681H16.9175V15.3655C16.9175 14.9686 17.2391 14.6471 17.6359 14.6471C18.0328 14.6471 18.3543 14.9686 18.3543 15.3655V22.8367H20.1279C20.5247 22.8367 20.8463 23.1583 20.8463 23.5551C20.8463 23.952 20.5247 24.2735 20.1279 24.2735H18.3543V27.7936C18.3543 28.1905 18.0328 28.512 17.6359 28.512C17.2391 28.512 16.9175 28.1905 16.9175 27.7936V20.1178H6.65718V40.7488H12.3563C12.7532 40.7488 13.0747 41.0704 13.0747 41.4672V45.5865ZM1.43678 45.5865H11.6379V42.1856H5.93879C5.54195 42.1856 5.2204 41.864 5.2204 41.4672V28.9672H1.43678V45.5865ZM1.43678 27.5304H5.2204V20.1178H1.43678V27.5304ZM42.5287 24.9385H43.5839V4.41347H42.5287V24.9385ZM40.0368 24.9385H41.092V4.41347H40.0368V24.9385ZM1.43678 18.4307H4.16667V14.6471H1.43678V18.4307ZM4.88506 13.2103H5.81897V4.41347H1.43678V13.2103H4.88506ZM13.0029 6.98444C12.4747 6.98444 12.0451 7.41433 12.0451 7.9422V9.81002C12.0451 10.3382 12.4747 10.7678 13.0029 10.7678C13.531 10.7678 13.9606 10.3382 13.9606 9.81002V7.9422C13.9606 7.41433 13.531 6.98444 13.0029 6.98444ZM22.4138 6.0264H32.9882V4.41347H22.4138V6.0264ZM13.0029 5.54766H14.7032V4.41347H11.3026V5.54766H13.0029ZM28.723 43.4546H22.9629C22.5661 43.4546 22.2445 43.133 22.2445 42.7362V29.5718C22.2445 29.175 22.5661 28.8534 22.9629 28.8534H28.723C29.1198 28.8534 29.4414 29.175 29.4414 29.5718V42.7365C29.4414 43.133 29.1195 43.4546 28.723 43.4546ZM23.6813 42.0178H28.0046V41.2994H25.4549C25.058 41.2994 24.7365 40.9778 24.7365 40.581V31.727C24.7365 31.3301 25.058 31.0086 25.4549 31.0086H28.0046V30.2902H23.6813V42.0178ZM26.1733 39.8626H28.0046V32.4454H26.1733V39.8626ZM44.3023 43.0235C43.9055 43.0235 43.5839 42.702 43.5839 42.3051V29.9488C43.5839 29.552 43.9055 29.2304 44.3023 29.2304C44.6991 29.2304 45.0207 29.552 45.0207 29.9488V32.1775C45.3943 32.2028 45.6897 32.514 45.6897 32.8942V39.3597C45.6897 39.7399 45.3945 40.0511 45.0207 40.0764V42.3051C45.0207 42.702 44.6991 43.0235 44.3023 43.0235ZM37.3767 42.1615C35.092 42.1615 33.3023 39.7002 33.3023 36.558C33.3023 33.4158 35.092 30.9546 37.3767 30.9546C39.6615 30.9546 41.4511 33.4158 41.4511 36.558C41.4511 39.7002 39.6615 42.1615 37.3767 42.1615ZM37.3767 32.3913C35.9468 32.3913 34.7391 34.2994 34.7391 36.558C34.7391 38.8166 35.9471 40.7247 37.3767 40.7247C38.8063 40.7247 40.0144 38.8166 40.0144 36.558C40.0144 34.2994 38.8063 32.3913 37.3767 32.3913Z" fill="#FF7F08"/>
</svg>
