<svg width="48" height="48" viewBox="0 0 48 48" fill="none" xmlns="http://www.w3.org/2000/svg">
<path d="M48 9.85876V8.31262L40.9688 2.0625L33.9375 8.31262V9.85876H36.0469V15.6595H35.3438V17.0658H40.2656V17.7689H41.6719V17.0658H46.5938V15.6595H45.8906V9.85876H48ZM37.4531 15.6595V8.45251H35.8967L40.9688 3.94409L46.0408 8.45251H44.4844V15.6595H37.4531Z" fill="#FF7F08"/>
<path d="M40.2656 12.847H41.6719V14.2533H40.2656V12.847Z" fill="#FF7F08"/>
<path d="M39.5625 10.0345H42.375V11.4408H39.5625V10.0345Z" fill="#FF7F08"/>
<path d="M38.8594 7.22205H43.0781V8.6283H38.8594V7.22205Z" fill="#FF7F08"/>
<line x1="26" y1="26.5" x2="40" y2="26.5" stroke="#FF7F08"/>
<line x1="25.5" y1="27" x2="25.5" y2="10" stroke="#FF7F08"/>
<line x1="5" y1="9.5" x2="26" y2="9.5" stroke="#FF7F08"/>
<line x1="5.5" y1="10" x2="5.5" y2="20" stroke="#FF7F08"/>
<line x1="20" y1="20.5" x2="5" y2="20.5" stroke="#FF7F08"/>
<line x1="20.5" y1="20" x2="20.5" y2="34" stroke="#FF7F08"/>
<line x1="-4.37114e-08" y1="33.5" x2="20" y2="33.5" stroke="#FF7F08"/>
<line x1="40.5" y1="19" x2="40.5" y2="27" stroke="#FF7F08"/>
</svg>
