<svg width="43" height="43" viewBox="0 0 43 43" fill="none" xmlns="http://www.w3.org/2000/svg">
<path d="M38.2969 16.7969H4.70312C3.81249 16.7979 2.95864 17.1522 2.32887 17.782C1.69909 18.4118 1.34482 19.2656 1.34375 20.1562V28.2188C1.34375 28.3969 1.41454 28.5678 1.54054 28.6938C1.66654 28.8198 1.83743 28.8906 2.01562 28.8906H4.70312V29.5625C4.70312 29.7407 4.77391 29.9116 4.89991 30.0376C5.02591 30.1636 5.19681 30.2344 5.375 30.2344H13.4375C13.6157 30.2344 13.7866 30.1636 13.9126 30.0376C14.0386 29.9116 14.1094 29.7407 14.1094 29.5625V28.8906H28.8906V29.5625C28.8906 29.7407 28.9614 29.9116 29.0874 30.0376C29.2134 30.1636 29.3843 30.2344 29.5625 30.2344H37.625C37.8032 30.2344 37.9741 30.1636 38.1001 30.0376C38.2261 29.9116 38.2969 29.7407 38.2969 29.5625V28.8906H40.9844C41.1626 28.8906 41.3335 28.8198 41.4595 28.6938C41.5855 28.5678 41.6562 28.3969 41.6562 28.2188V20.1562C41.6552 19.2656 41.3009 18.4118 40.6711 17.782C40.0414 17.1522 39.1875 16.7979 38.2969 16.7969ZM6.04688 18.1406H7.39062V22.1719H6.04688V18.1406ZM12.7656 28.8906H6.04688V27.5469C6.04688 27.3687 6.11766 27.1978 6.24366 27.0718C6.36966 26.9458 6.54056 26.875 6.71875 26.875H12.0938C12.2719 26.875 12.4428 26.9458 12.5688 27.0718C12.6948 27.1978 12.7656 27.3687 12.7656 27.5469V28.8906ZM36.9531 28.8906H30.2344V27.5469C30.2344 27.3687 30.3052 27.1978 30.4312 27.0718C30.5572 26.9458 30.7281 26.875 30.9062 26.875H36.2812C36.4594 26.875 36.6303 26.9458 36.7563 27.0718C36.8823 27.1978 36.9531 27.3687 36.9531 27.5469V28.8906ZM40.3125 27.5469H38.2969C38.2969 27.0123 38.0845 26.4996 37.7065 26.1216C37.3285 25.7436 36.8158 25.5312 36.2812 25.5312H30.9062C30.3717 25.5312 29.859 25.7436 29.481 26.1216C29.103 26.4996 28.8906 27.0123 28.8906 27.5469H27.5469V24.8594H26.2031V27.5469H24.8594V24.8594H23.5156V27.5469H22.1719V24.8594H20.8281V27.5469H19.4844V24.8594H18.1406V27.5469H16.7969V24.8594H15.4531V27.5469H14.1094C14.1094 27.0123 13.897 26.4996 13.519 26.1216C13.141 25.7436 12.6283 25.5312 12.0938 25.5312H6.71875C6.18417 25.5312 5.67149 25.7436 5.29349 26.1216C4.91548 26.4996 4.70312 27.0123 4.70312 27.5469H2.6875V20.1562C2.6875 19.6217 2.89986 19.109 3.27786 18.731C3.65587 18.353 4.16855 18.1406 4.70312 18.1406V22.8438C4.70312 23.0219 4.77391 23.1928 4.89991 23.3188C5.02591 23.4448 5.19681 23.5156 5.375 23.5156H8.0625C8.24069 23.5156 8.41159 23.4448 8.53759 23.3188C8.66359 23.1928 8.73438 23.0219 8.73438 22.8438V18.1406H38.2969C38.8315 18.1406 39.3441 18.353 39.7221 18.731C40.1001 19.109 40.3125 19.6217 40.3125 20.1562V27.5469Z" fill="#FF7F08"/>
<path d="M36.2813 19.4844C35.8826 19.4844 35.4929 19.6026 35.1614 19.8241C34.83 20.0455 34.5716 20.3603 34.4191 20.7287C34.2665 21.097 34.2266 21.5022 34.3044 21.8932C34.3821 22.2842 34.5741 22.6434 34.856 22.9253C35.1379 23.2072 35.497 23.3991 35.888 23.4769C36.279 23.5547 36.6843 23.5148 37.0526 23.3622C37.4209 23.2096 37.7357 22.9513 37.9572 22.6198C38.1787 22.2884 38.2969 21.8987 38.2969 21.5C38.2969 20.9654 38.0845 20.4527 37.7065 20.0747C37.3285 19.6967 36.8158 19.4844 36.2813 19.4844ZM36.2813 22.1719C36.1484 22.1719 36.0185 22.1325 35.908 22.0586C35.7975 21.9848 35.7114 21.8799 35.6605 21.7571C35.6097 21.6343 35.5964 21.4993 35.6223 21.3689C35.6482 21.2386 35.7122 21.1189 35.8062 21.0249C35.9001 20.931 36.0198 20.867 36.1502 20.841C36.2805 20.8151 36.4156 20.8284 36.5384 20.8793C36.6611 20.9301 36.7661 21.0162 36.8399 21.1267C36.9137 21.2372 36.9531 21.3671 36.9531 21.5C36.9531 21.6782 36.8823 21.8491 36.7563 21.9751C36.6303 22.1011 36.4594 22.1719 36.2813 22.1719Z" fill="#FF7F08"/>
<path d="M29.5625 19.4844H13.4375C13.2593 19.4844 13.0884 19.5552 12.9624 19.6812C12.8364 19.8072 12.7656 19.9781 12.7656 20.1562V22.8438C12.7656 23.0219 12.8364 23.1928 12.9624 23.3188C13.0884 23.4448 13.2593 23.5156 13.4375 23.5156H29.5625C29.7407 23.5156 29.9116 23.4448 30.0376 23.3188C30.1636 23.1928 30.2344 23.0219 30.2344 22.8438V20.1562C30.2344 19.9781 30.1636 19.8072 30.0376 19.6812C29.9116 19.5552 29.7407 19.4844 29.5625 19.4844ZM28.8906 22.1719H14.1094V20.8281H28.8906V22.1719Z" fill="#FF7F08"/>
<path d="M10.0781 19.4844H11.4219V20.8281H10.0781V19.4844Z" fill="#FF7F08"/>
<path d="M10.0781 22.1719H11.4219V23.5156H10.0781V22.1719Z" fill="#FF7F08"/>
<path d="M31.5781 19.4844H32.9219V20.8281H31.5781V19.4844Z" fill="#FF7F08"/>
<path d="M31.5781 22.1719H32.9219V23.5156H31.5781V22.1719Z" fill="#FF7F08"/>
<path d="M15.0453 35.1391C14.6588 35.5229 14.197 35.8225 13.689 36.019C13.1811 36.2156 12.6379 36.3049 12.0938 36.2813V37.6251C12.8151 37.6487 13.5336 37.5244 14.2051 37.2601C14.8767 36.9957 15.487 36.5968 15.9987 36.0878C18.1184 33.9539 18.1191 30.3809 18.1184 30.2297L16.7747 30.2391C16.7747 30.2707 16.7754 33.3996 15.0453 35.1391Z" fill="#FF7F08"/>
<path d="M30.9062 37.625V36.2812C26.2703 36.2812 26.2031 30.4803 26.2031 30.2344H24.8594C24.8594 32.7909 26.1232 37.625 30.9062 37.625Z" fill="#FF7F08"/>
<path d="M15.4531 40.3125C20.767 40.3125 20.8281 31.9349 20.8281 31.5781H19.4844C19.4844 31.652 19.438 38.9688 15.4531 38.9688V40.3125Z" fill="#FF7F08"/>
<path d="M22.1719 31.5781C22.1719 31.9349 22.233 40.3125 27.5469 40.3125V38.9688C23.5707 38.9688 23.5156 31.6514 23.5156 31.5781H22.1719Z" fill="#FF7F08"/>
<path d="M27.3084 8.22036C27.2499 8.17199 21.4342 3.37682 15.6917 8.22036L16.5584 9.24833C21.4254 5.13982 26.2408 9.07902 26.4423 9.24833L27.3084 8.22036Z" fill="#FF7F08"/>
<path d="M25.3089 10.2508C24.2742 9.28802 22.9133 8.75281 21.5 8.75281C20.0867 8.75281 18.7258 9.28802 17.6911 10.2508L18.5901 11.2492C21.4496 8.67657 24.2923 11.1444 24.4112 11.2492L25.3089 10.2508Z" fill="#FF7F08"/>
<path d="M29.371 6.92031C29.2266 6.77519 25.8356 3.35938 21.2266 3.35938C18.4961 3.35938 15.9396 4.55733 13.629 6.92031L14.5898 7.86094C16.635 5.76939 18.8642 4.70716 21.2158 4.70313H21.2259C25.2571 4.70313 28.38 7.82936 28.4109 7.86094L29.371 6.92031Z" fill="#FF7F08"/>
<path d="M19.4844 13.4375C19.4844 13.8362 19.6026 14.2259 19.8241 14.5573C20.0455 14.8888 20.3603 15.1471 20.7287 15.2997C21.097 15.4523 21.5022 15.4922 21.8932 15.4144C22.2842 15.3366 22.6434 15.1447 22.9253 14.8628C23.2072 14.5809 23.3991 14.2217 23.4769 13.8307C23.5547 13.4397 23.5148 13.0345 23.3622 12.6662C23.2096 12.2978 22.9513 11.983 22.6198 11.7616C22.2884 11.5401 21.8987 11.4219 21.5 11.4219C20.9654 11.4219 20.4527 11.6342 20.0747 12.0122C19.6967 12.3902 19.4844 12.9029 19.4844 13.4375ZM22.1719 13.4375C22.1719 13.5704 22.1325 13.7003 22.0586 13.8108C21.9848 13.9213 21.8799 14.0074 21.7571 14.0582C21.6343 14.1091 21.4993 14.1224 21.3689 14.0965C21.2386 14.0705 21.1189 14.0066 21.0249 13.9126C20.931 13.8186 20.867 13.6989 20.841 13.5686C20.8151 13.4382 20.8284 13.3032 20.8793 13.1804C20.9301 13.0576 21.0162 12.9527 21.1267 12.8789C21.2372 12.805 21.3671 12.7656 21.5 12.7656C21.6782 12.7656 21.8491 12.8364 21.9751 12.9624C22.1011 13.0884 22.1719 13.2593 22.1719 13.4375Z" fill="#FF7F08"/>
</svg>
