<svg width="53" height="53" viewBox="0 0 53 53" fill="none" xmlns="http://www.w3.org/2000/svg">
<g clip-path="url(#clip0)">
<path d="M30.3736 10.751L31.6741 11.9447L32.8678 10.6441C33.929 9.48799 35.7331 9.41074 36.8892 10.4719L41.9852 15.1494C43.1414 16.2106 43.2186 18.0146 42.1574 19.1708L40.9637 20.4713L42.2642 21.665C43.4204 22.7262 43.4977 24.5302 42.4365 25.6864L24.5062 45.2211C23.445 46.3772 21.641 46.4545 20.4849 45.3933L8.59419 34.4792C7.43804 33.418 7.36078 31.614 8.42198 30.4579L26.3522 10.9232C27.4134 9.76703 29.2174 9.68977 30.3736 10.751ZM9.21823 31.1887C8.56002 31.9058 8.60794 33.0248 9.32505 33.683L21.2157 44.597C21.9328 45.2552 23.0518 45.2073 23.71 44.4902L41.6402 24.9555C42.2984 24.2384 42.2505 23.1195 41.5334 22.4613L39.8347 20.9021L34.3141 15.8349C34.0942 15.6331 34.0795 15.2912 34.2814 15.0713C34.4832 14.8515 34.825 14.8368 35.0449 15.0386L40.1675 19.7404L41.3612 18.4399C42.0194 17.7228 41.9715 16.6038 41.2544 15.9456L36.1584 11.2682C35.4413 10.61 34.3223 10.6579 33.6641 11.375L32.4704 12.6755L33.3462 13.4795C33.5661 13.6813 33.5808 14.0232 33.3789 14.243C33.1771 14.4629 32.8353 14.4775 32.6154 14.2757L31.3414 13.1064L29.6427 11.5472C28.9256 10.889 27.8067 10.9369 27.1485 11.654L9.21823 31.1887Z" fill="#FF7F08"/>
<path d="M23.195 22.9407L26.2558 25.7501L29.641 21.0043C29.9696 20.5188 30.3173 20.3414 30.6744 20.4772C31.0331 20.6135 31.1749 20.9796 31.0968 21.5594L29.8935 31.2862C29.8265 31.7833 29.5714 32.1468 29.1939 32.2834C28.8163 32.42 28.3879 32.3038 28.0183 31.9647L25.4027 29.5638L21.2867 35.2078C20.9587 35.6914 20.6116 35.8679 20.255 35.7324C20.1742 35.7017 20.1044 35.6594 20.0456 35.6054C19.8436 35.42 19.7723 35.0981 19.8335 34.6444L21.3199 23.6191C21.3869 23.1221 21.6419 22.7586 22.0194 22.622C22.397 22.4853 22.8255 22.6015 23.195 22.9407ZM22.391 23.7634L21.0519 33.6954L24.8857 28.4382C24.9764 28.3138 25.1158 28.2341 25.2689 28.2188C25.422 28.2036 25.5744 28.2544 25.6878 28.3585L28.7491 31.1684C28.7711 31.1885 28.7909 31.2045 28.8083 31.2171C28.8133 31.1975 28.818 31.1744 28.8215 31.1477L29.8892 22.5176L26.7807 26.8754C26.6908 27.0015 26.5511 27.083 26.397 27.099C26.2431 27.1152 26.0894 27.0644 25.9754 26.9597L22.4642 23.7369C22.4423 23.7169 22.4226 23.7009 22.4052 23.6883C22.4 23.7091 22.395 23.7341 22.391 23.7634Z" fill="#FF7F08"/>
<path d="M28.8144 12.4496C29.0343 12.6515 29.0489 12.9933 28.8471 13.2132L28.0676 14.0625C27.8657 14.2824 27.5239 14.297 27.304 14.0952C27.0841 13.8934 27.0695 13.5515 27.2713 13.3317L28.0509 12.4823C28.2527 12.2625 28.5946 12.2478 28.8144 12.4496Z" fill="#FF7F08"/>
<path d="M26.4757 14.9976C26.6956 15.1994 26.7102 15.5413 26.5084 15.7612L22.2208 20.4325C22.0189 20.6524 21.6771 20.667 21.4572 20.4652C21.2373 20.2634 21.2227 19.9215 21.4245 19.7016L25.7122 15.0303C25.914 14.8104 26.2558 14.7958 26.4757 14.9976Z" fill="#FF7F08"/>
</g>
<defs>
<clipPath id="clip0">
<rect width="36.8197" height="36.8197" transform="matrix(-0.736714 -0.676205 -0.676205 0.736714 53 25.2595)" fill="white"/>
</clipPath>
</defs>
</svg>
