<svg width="43" height="43" viewBox="0 0 43 43" fill="none" xmlns="http://www.w3.org/2000/svg">
<g clip-path="url(#clip0)">
<path d="M13.609 30.0967C20.543 30.0967 24.3618 26.0234 24.3618 18.627C24.3618 11.7021 14.5597 0.692003 14.1424 0.227517C14.0028 0.0822563 13.8103 0 13.609 0C13.4077 0 13.2149 0.0822563 13.0756 0.227517C12.6583 0.692003 2.85617 11.7021 2.85617 18.627C2.85617 26.0234 6.67496 30.0967 13.609 30.0967ZM13.609 1.79949C15.6612 4.20802 22.9281 13.1222 22.9281 18.627C22.9281 23.2054 21.311 28.663 13.609 28.663C5.90701 28.663 4.28988 23.2054 4.28988 18.627C4.28988 13.1222 11.5564 4.20802 13.609 1.79949Z" fill="#FF7F08"/>
<path d="M33.6809 31.5304C37.7812 31.5304 40.1326 28.7942 40.1326 24.022C40.1326 19.5409 34.4472 13.3812 34.2056 13.1207C34.067 12.9807 33.878 12.902 33.6809 12.902C33.4839 12.902 33.2949 12.9807 33.1563 13.1207C32.9147 13.3812 27.2292 19.5409 27.2292 24.022C27.2292 28.7942 29.5804 31.5304 33.6809 31.5304ZM33.6809 14.6913C35.0636 16.3 38.6989 20.8336 38.6989 24.022C38.6989 28.0529 37.0108 30.0967 33.6809 30.0967C30.3511 30.0967 28.663 28.0529 28.663 24.022C28.663 20.8336 32.298 16.3 33.6809 14.6913Z" fill="#FF7F08"/>
<path d="M23.1073 28.9052C22.9246 29.1124 18.627 34.0208 18.627 37.2652C18.627 40.9097 20.4562 43.0001 23.6449 43.0001C26.8333 43.0001 28.6629 40.9097 28.6629 37.2652C28.6629 34.0208 24.3653 29.1124 24.1826 28.9052C24.0426 28.7575 23.8483 28.6738 23.6449 28.6738C23.4416 28.6738 23.2469 28.7575 23.1073 28.9052ZM23.6449 41.5664C21.2672 41.5664 20.0607 40.119 20.0607 37.2652C20.0607 35.3166 22.3036 32.1447 23.6449 30.4922C24.9869 32.1412 27.2292 35.3138 27.2292 37.2652C27.2292 40.119 26.0227 41.5664 23.6449 41.5664Z" fill="#FF7F08"/>
<path d="M12.1036 27.2258C12.1274 27.2282 12.1512 27.2293 12.1753 27.2293C12.5572 27.2293 12.8722 26.9297 12.8915 26.5481C12.9104 26.1666 12.6272 25.8372 12.2471 25.7991C10.7496 25.7238 9.35584 25.0122 8.41672 23.8435C6.51012 21.3576 7.14157 17.3501 7.14717 17.3102C7.19932 16.9263 6.9368 16.5703 6.55457 16.5066C6.17234 16.4432 5.80867 16.6949 5.73376 17.075C5.70191 17.2644 4.991 21.7244 7.27423 24.7094C8.44892 26.2016 10.2075 27.118 12.1036 27.2258Z" fill="#FF7F08"/>
<path d="M32.9641 28.6631C34.2868 28.6442 35.548 28.1009 36.4703 27.1527C37.2687 26.1257 37.5575 24.7918 37.2551 23.5268C37.1816 23.1445 36.8168 22.8908 36.4329 22.9548C36.0489 23.0192 35.7864 23.378 35.8417 23.7634C36.0611 24.6098 35.8924 25.5104 35.3814 26.2199C34.7328 26.8506 33.8686 27.2115 32.9641 27.2294C32.5682 27.2294 32.2472 27.5503 32.2472 27.9462C32.2472 28.3421 32.5682 28.6631 32.9641 28.6631Z" fill="#FF7F08"/>
<path d="M23.2484 38.7742C23.0247 38.6839 22.8521 38.5001 22.7758 38.2712C22.6999 38.0427 22.7279 37.7917 22.8528 37.5855C23.0296 37.2313 22.8861 36.8004 22.5315 36.6237C22.1773 36.4465 21.7468 36.5904 21.5696 36.9446C21.2749 37.4921 21.2193 38.1372 21.4156 38.727C21.6124 39.3168 22.0436 39.7994 22.6075 40.0609C22.962 40.238 23.3926 40.0942 23.5697 39.7396C23.7465 39.3854 23.6029 38.9548 23.2484 38.7777V38.7742Z" fill="#FF7F08"/>
</g>
<defs>
<clipPath id="clip0">
<rect width="43" height="43" fill="white"/>
</clipPath>
</defs>
</svg>
