<svg width="109" height="26" viewBox="0 0 109 26" fill="none" xmlns="http://www.w3.org/2000/svg">
<path d="M107.259 17.9579C96.6318 19.7457 86.1049 22.0862 75.7212 24.9699C74.6152 25.2759 72.3772 23.3779 73.4222 22.3079C76.317 19.3456 79.4773 16.6546 82.8632 14.2689C56.055 11.6386 29.1043 10.7511 2.18117 11.6119C0.840169 11.6549 -1.07883 8.74594 0.753169 8.68694C28.8982 7.78694 57.0632 8.80294 85.0652 11.7169C83.3082 8.25094 82.2612 4.62694 81.8122 0.720937C81.6782 -0.449063 83.2402 0.0929368 83.6962 0.364937C91.6376 5.08528 99.3925 10.1128 106.943 15.4359C107.7 15.9689 108.755 17.7059 107.259 17.9569V17.9579ZM88.4292 14.7549C85.7874 16.4041 83.267 18.2402 80.8872 20.2489C88.2553 18.399 95.6874 16.814 103.169 15.4969C97.2409 11.4067 91.1901 7.49686 85.0252 3.77294C85.5782 6.93694 86.6582 9.88594 88.2312 12.7299C88.9062 13.3679 89.2892 14.2189 88.4282 14.7549H88.4292Z" fill="#B9B9B9"/>
</svg>
