<svg width="127" height="127" viewBox="0 0 127 127" fill="none" xmlns="http://www.w3.org/2000/svg">
<path d="M33.9824 19.1082C21.6731 19.1082 11.6582 29.123 11.6582 41.4324C11.6582 53.7417 21.6731 63.7566 33.9824 63.7566C46.2917 63.7566 56.3066 53.7417 56.3066 41.4324C56.3066 29.123 46.2917 19.1082 33.9824 19.1082ZM33.9824 60.0359C23.7243 60.0359 15.3789 51.6905 15.3789 41.4324C15.3789 31.1743 23.7243 22.8289 33.9824 22.8289C44.2405 22.8289 52.5859 31.1743 52.5859 41.4324C52.5859 51.6905 44.2405 60.0359 33.9824 60.0359Z" fill="#FF7F08"/>
<path d="M32.1221 52.5945H35.8428V56.3152H32.1221V52.5945Z" fill="#FF7F08"/>
<path d="M32.1221 26.5496H35.8428V30.2703H32.1221V26.5496Z" fill="#FF7F08"/>
<path d="M19.0996 33.991V48.8738H48.8652V33.991H19.0996ZM45.1445 45.1531H22.8203V37.7117H45.1445V45.1531Z" fill="#FF7F08"/>
<path d="M63.0872 47.6752C63.3924 46.2489 63.5959 44.7859 63.688 43.2927H67.7323V39.572H63.688C63.5959 38.0789 63.3924 36.6158 63.0872 35.1895L66.6917 31.5861L64.06 28.9545L61.9022 31.1123C57.6971 19.7709 46.7685 11.6667 33.9824 11.6667C21.1324 11.6667 10.1583 19.8523 5.99963 31.2828L3.67226 28.9545L1.04063 31.5861L4.83595 35.3804C4.55302 36.7466 4.36504 38.1458 4.27687 39.572H0V43.2927H4.27687C4.36504 44.719 4.55302 46.1191 4.83595 47.4843L1.04063 51.2787L3.67226 53.9103L5.99963 51.5819C9.95579 62.4563 20.0811 70.3918 32.1221 71.1379V73.0583H35.8428V71.1379C47.8198 70.3957 57.9025 62.5396 61.9022 51.7525L64.06 53.9103L66.6907 51.2787L63.0872 47.6752ZM33.9824 67.4773C19.6209 67.4773 7.9375 55.7939 7.9375 41.4324C7.9375 27.0708 19.6209 15.3875 33.9824 15.3875C48.3439 15.3875 60.0273 27.0708 60.0273 41.4324C60.0273 55.7939 48.3439 67.4773 33.9824 67.4773Z" fill="#FF7F08"/>
<path d="M48.1337 96.7432L44.7802 95.1318C44.164 96.4147 42.8462 97.2431 41.4238 97.2431H40.3483V100.964H41.4238C44.2677 100.964 46.9012 99.307 48.1337 96.7432Z" fill="#D9D9D9"/>
<path d="M43.5797 117.707H50.9271V121.427H43.5797V117.707Z" fill="#D9D9D9"/>
<path d="M45.0631 92.7425L48.7025 91.9683C47.9971 88.6536 45.1387 86.2361 41.7523 86.0879L41.5905 89.8057C43.2822 89.8793 44.7114 91.0866 45.0631 92.7425Z" fill="#D9D9D9"/>
<path d="M72.1196 69.3376H78.2355V65.6169H72.1196C71.5431 65.6169 70.9705 65.6925 70.4182 65.8417L71.3891 69.4336C71.6245 69.3696 71.8706 69.3376 72.1196 69.3376Z" fill="#D9D9D9"/>
<path d="M4.22165 112.107L0.710236 113.339C1.67723 116.096 3.61219 118.409 6.15855 119.856L7.99661 116.621C6.23122 115.618 4.89021 114.015 4.22165 112.107Z" fill="#D9D9D9"/>
<path d="M24.4559 80.2734C23.4007 81.3276 22.8203 82.7297 22.8203 84.2209C22.8203 86.5105 24.1923 88.5433 26.3162 89.3988L27.7066 85.9475C26.9984 85.6626 26.541 84.9844 26.541 84.2209C26.541 83.7238 26.7348 83.2568 27.0865 82.9051L24.4559 80.2734Z" fill="#D9D9D9"/>
<path d="M18.308 97.2429H25.6544V100.964H18.308V97.2429Z" fill="#D9D9D9"/>
<path d="M10.8133 117.605L10.2377 121.281C10.8569 121.378 11.4915 121.428 12.1233 121.428H17.8652V117.707H12.1233C11.6843 117.707 11.2435 117.673 10.8133 117.605Z" fill="#D9D9D9"/>
<path d="M5.93761 103.695L3.18875 101.188C1.216 103.349 0.0959168 106.151 0.033905 109.075L3.75364 109.154C3.79724 107.13 4.57239 105.191 5.93761 103.695Z" fill="#D9D9D9"/>
<path d="M14.6338 100.964V97.2429H12.1233C10.2125 97.2429 8.30859 97.7003 6.6178 98.5665L8.31343 101.878C9.49844 101.272 10.7803 100.964 12.1233 100.964H14.6338Z" fill="#D9D9D9"/>
<path d="M21.5394 117.707H28.8858V121.427H21.5394V117.707Z" fill="#D9D9D9"/>
<path d="M30.6503 86.0808H37.9977V89.8015H30.6503V86.0808Z" fill="#D9D9D9"/>
<path d="M29.3277 97.2429H36.6751V100.964H29.3277V97.2429Z" fill="#D9D9D9"/>
<path d="M32.56 117.707H39.9065V121.427H32.56V117.707Z" fill="#D9D9D9"/>
<path d="M32.1221 77.5824C32.1221 78.1647 31.6483 78.6395 31.065 78.6395H29.1523V82.3602H31.065C33.6995 82.3602 35.8428 80.2169 35.8428 77.5824V76.7317H32.1221V77.5824Z" fill="#FF7F08"/>
<path d="M74.9101 110.568C74.9101 111.979 74.5003 113.343 73.7232 114.511L76.8228 116.57C78.0059 114.79 78.6309 112.714 78.6309 110.568V108.491H74.9101V110.568Z" fill="#D9D9D9"/>
<path d="M103.334 65.3843L104.497 68.918C107.554 67.9103 109.788 65.1983 110.191 62.0095L106.499 61.5435C106.275 63.3166 105.033 64.8233 103.334 65.3843Z" fill="#D9D9D9"/>
<path d="M81.9097 65.6169H89.2571V69.3376H81.9097V65.6169Z" fill="#D9D9D9"/>
<path d="M92.9304 65.6169H100.277V69.3376H92.9304V65.6169Z" fill="#D9D9D9"/>
<path d="M54.6003 117.707H61.9478V121.427H54.6003V117.707Z" fill="#D9D9D9"/>
<path d="M106.536 50.7585H110.257V58.106H106.536V50.7585Z" fill="#D9D9D9"/>
<path d="M73.9257 75.1731L72.8948 78.7485C74.0817 79.0905 74.9102 80.1931 74.9102 81.4305V82.7773H78.6309V81.4305C78.6309 78.545 76.6959 75.9725 73.9257 75.1731Z" fill="#D9D9D9"/>
<path d="M74.9102 97.4707H78.6309V104.818H74.9102V97.4707Z" fill="#D9D9D9"/>
<path d="M67.771 117.707H65.6219V121.427H67.771C69.8862 121.427 71.9365 120.819 73.6999 119.667L71.6662 116.552C70.5083 117.308 69.1615 117.707 67.771 117.707Z" fill="#D9D9D9"/>
<path d="M68.9493 77.8163L70.7631 74.5675C69.8785 74.0743 69.3301 73.1393 69.3291 72.1287C69.3291 71.6442 69.4551 71.1675 69.6925 70.7509L66.4591 68.9099C65.903 69.8866 65.6084 70.9999 65.6084 72.1287C65.6084 74.4871 66.8884 76.6662 68.9493 77.8163Z" fill="#D9D9D9"/>
<path d="M74.9102 86.4502H78.6309V93.7976H74.9102V86.4502Z" fill="#D9D9D9"/>
<path d="M127 26.0846V21.9938L108.396 5.45703L89.793 21.9938V26.0846H95.374V41.4325H93.5137V45.1533H106.536V47.0136H110.257V45.1533H123.279V41.4325H121.419V26.0846H127ZM99.0947 41.4325V22.3639H94.9768L108.396 10.4354L121.816 22.3639H117.698V41.4325H99.0947Z" fill="black"/>
<path d="M106.536 33.991H110.257V37.7117H106.536V33.991Z" fill="black"/>
<path d="M104.676 26.5496H112.117V30.2703H104.676V26.5496Z" fill="black"/>
<path d="M102.815 19.1082H113.978V22.8289H102.815V19.1082Z" fill="black"/>
</svg>
