<svg width="109" height="109" viewBox="0 0 109 109" fill="none" xmlns="http://www.w3.org/2000/svg">
<path d="M3.8147e-06 9.09692V100.056H17.7306L25.4878 92.2989V16.8533L17.7306 9.09692H3.8147e-06ZM22.2945 90.9767L16.4084 96.8627H3.19336V12.2903H16.4084L22.2945 18.1755V90.9767Z" fill="black"/>
<path d="M93.2534 28.4559L94.3828 27.3266L84.0152 16.959L82.8867 18.0883C62.7677 38.2073 62.7677 70.9434 82.8867 91.0624L84.0152 92.1917L94.3828 81.8249L93.2534 80.6956C78.8509 66.2931 78.8509 42.8585 93.2534 28.4559ZM84.0335 87.657C66.6413 69.0931 66.6413 40.0576 84.0335 21.4937L89.8888 27.349C75.7174 42.6805 75.7174 66.4702 89.8888 81.8025L84.0335 87.657Z" fill="#FF7F08"/>
<path d="M107.871 43.073L109 41.9437L98.6331 31.5769L97.5037 32.7054C85.4338 44.7761 85.4338 64.3754 97.5037 76.4453L98.6331 77.5746L109 67.207L107.871 66.0785C101.524 59.7317 101.524 49.4198 107.871 43.073ZM98.6647 73.0265C89.3124 62.5517 89.3008 46.6123 98.6647 36.1249L104.53 41.9894C98.3786 49.2244 98.3827 59.9313 104.529 67.1621L98.6647 73.0265Z" fill="#FF7F08"/>
<path d="M28.6487 40.1624L27.6483 43.1952C32.5672 44.8177 35.872 49.3915 35.872 54.5757C35.872 59.7599 32.5672 64.3329 27.6483 65.9562L28.6487 68.9882C34.8791 66.9325 39.0654 61.1404 39.0654 54.5757C39.0654 48.0102 34.8791 42.2181 28.6487 40.1624Z" fill="black"/>
<path d="M78.6364 13.8387L79.7657 12.7094L69.3981 2.3418L68.2688 3.47112C44.8159 26.9248 40.84 62.7038 56.5573 90.3338L59.3332 88.7546C44.2612 62.2605 48.4492 28.8276 69.4114 6.87154L75.2642 12.7235C53.2276 35.9228 52.8276 72.8069 75.2634 96.427L69.4106 102.28C66.4667 99.1971 63.8097 95.849 61.4995 92.3072L58.8251 94.0519C61.5436 98.2199 64.7212 102.133 68.2688 105.68L69.3973 106.809L79.7649 96.4419L78.6364 95.3126C56.1556 72.8327 56.1556 36.3186 78.6364 13.8387Z" fill="#FF7F08"/>
<path d="M20.1655 89.4331H16.9722V66.7703H20.1655V89.4331ZM20.1655 64.6414H16.9722V61.448H20.1655V64.6414ZM20.1655 59.3191H16.9722V56.1257H20.1655V59.3191Z" fill="black"/>
<path d="M56.3793 46.9032L53.2092 46.5207C53.339 45.4412 53.4978 44.3518 53.6799 43.2841L56.8284 43.8213C56.6546 44.8383 56.5032 45.8753 56.3793 46.9032ZM57.2101 41.7797L54.0816 41.141C54.2978 40.0782 54.5448 39.0055 54.8142 37.9527L57.9078 38.7443C57.6508 39.7464 57.4163 40.7676 57.2101 41.7797ZM58.455 36.741L55.3889 35.8495C57.9893 26.9123 62.3486 18.7709 68.3461 11.6523L70.7877 13.7097C65.0796 20.4856 60.9299 28.2345 58.455 36.741Z" fill="#FF7F08"/>
<path d="M30.2437 62.101L28.1822 59.6627C28.9473 59.0166 29.566 58.1941 29.9726 57.286L32.8874 58.5908C32.2861 59.9338 31.3722 61.148 30.2437 62.101ZM33.6159 56.1609L30.4633 55.6494C30.5206 55.2968 30.5498 54.9351 30.5498 54.5758C30.5498 54.0735 30.4932 53.5737 30.3826 53.0889L33.4953 52.3771C33.6591 53.0939 33.7431 53.834 33.7431 54.5758C33.7431 55.1064 33.6999 55.6394 33.6159 56.1609ZM29.7888 51.4864C29.3855 50.7213 28.8458 50.0494 28.1822 49.4889L30.2437 47.0498C31.2217 47.8773 32.02 48.8694 32.6146 49.9987L29.7888 51.4864Z" fill="black"/>
</svg>
