<svg width="124" height="124" viewBox="0 0 124 124" fill="none" xmlns="http://www.w3.org/2000/svg">
<g clip-path="url(#clip0)">
<path d="M3.66592 15.2909H38.8172V42.6789H25.1232V46.3448H42.4831V15.2909H85.2907V11.625H0V44.5124H3.66592V15.2909Z" fill="black"/>
<path d="M3.66592 50.3342H0V112.334H56.1771V108.668H23.074V87.1032H36.769V83.4373H19.4091V108.668H3.66592V63.8125H54.3446V87.2111H58.0105V60.1466H3.66592V50.3342Z" fill="black"/>
<path d="M91.1126 11.625V15.2909H120.334V32.9744H71.8124V50.3343H75.4783V36.6403H120.334V108.668H87.1232V79.3391H112.463V75.6741H98.769V58.2064H79.4678V61.8713H95.1031V75.6741H83.4572V108.668H62V112.334H124V11.625L91.1126 11.625Z" fill="black"/>
<path d="M7.76324 46.3448H19.1924V34.699H25.0153V19.3882H7.76324V46.3448ZM15.5265 42.6789H11.4292V34.699H15.5274V42.6789H15.5265ZM11.4292 23.0541H21.3494V31.034H11.4292V23.0541Z" fill="black"/>
<path d="M112.355 104.571V83.4375H91.2214V104.571H112.355ZM108.689 100.905H102.651V87.1034H108.689V100.905ZM94.8864 87.1034H98.9847V100.905H94.8864V87.1034Z" fill="black"/>
<path d="M46.3647 67.9109H7.76324V79.3401H46.3647V67.9109ZM42.6997 75.6741H11.4292V71.5759H42.6997V75.6741Z" fill="black"/>
<path d="M69.9996 81C65.1281 81 61.1643 84.9638 61.1643 89.8358C61.1643 91.1067 61.4244 92.32 61.937 93.4425C64.1461 98.2765 68.3815 103.38 69.6273 104.829C69.7206 104.937 69.8567 105 69.9999 105C70.1431 105 70.2791 104.937 70.3725 104.829C71.6178 103.38 75.8532 98.277 78.063 93.4425C78.5759 92.32 78.8357 91.1067 78.8357 89.8358C78.8352 84.9638 74.8715 81 69.9996 81ZM69.9996 94.4252C67.469 94.4252 65.41 92.3662 65.41 89.8356C65.41 87.3047 67.469 85.2457 69.9996 85.2457C72.5302 85.2457 74.5892 87.3047 74.5892 89.8356C74.5895 92.3662 72.5305 94.4252 69.9996 94.4252Z" fill="#FF7F08"/>
</g>
<defs>
<clipPath id="clip0">
<rect width="124" height="124" fill="white"/>
</clipPath>
</defs>
</svg>
