<svg width="97" height="97" viewBox="0 0 97 97" fill="none" xmlns="http://www.w3.org/2000/svg">
<g clip-path="url(#clip0)">
<path d="M97.1873 14.75V-0.189453H0.189331V14.75L4.10199 18.6627H93.2739L97.1873 14.75ZM3.03113 2.65235H94.3455V9.94557H3.03113V2.65235ZM5.27941 15.8208L3.03113 13.5733V12.7874H94.3455V13.5733L92.0972 15.8208H5.27941Z" fill="black"/>
<path d="M16.1323 30.5952H25.4518L23.6735 20.5571H13.278L16.1323 30.5952ZM21.2905 23.3989L22.0624 27.7541H18.2785L17.0404 23.3989H21.2905Z" fill="black"/>
<path d="M81.2436 30.5952L84.098 20.5571H73.7032L71.9249 30.5952H81.2436ZM76.0854 23.3989H80.3356L79.0975 27.7541H75.3136L76.0854 23.3989Z" fill="black"/>
<path d="M29.3267 30.5952H39.2605L38.7683 20.5571H27.6505L29.3267 30.5952ZM36.0627 23.3989L36.2758 27.7541H31.7334L31.0067 23.3989H36.0627Z" fill="black"/>
<path d="M68.0499 30.5952L69.7254 20.5571H58.6076L58.1155 30.5952H68.0499ZM61.314 23.3989H66.37L65.6433 27.7541H61.1001L61.314 23.3989Z" fill="black"/>
<path d="M54.1644 30.5952L54.5174 20.5571H42.8586L43.2116 30.5952H54.1644ZM51.5742 23.3989L51.421 27.7541H45.955L45.8018 23.3989H51.5742Z" fill="black"/>
<path d="M84.1565 43.6676L90.4817 21.4194L87.7487 20.6423L84.38 32.4898H12.9967L9.62798 20.6423L6.89423 21.4194L13.2202 43.6676H84.1565ZM83.5718 35.3316L82.0096 40.8258H15.3663L13.8041 35.3316H83.5718Z" fill="black"/>
<path d="M63.3122 68.8929L51.2182 56.799C50.8541 56.4349 50.8541 55.8421 51.2182 55.478L54.7017 51.9946L48.742 46.0342L45.2586 49.5176C41.6079 53.1683 41.6079 59.108 45.2586 62.7586L57.3525 74.8526C57.7166 75.2167 57.7166 75.8095 57.3525 76.1736L53.8691 79.657L59.8295 85.6174L63.3129 82.134C66.9629 78.4833 66.9629 72.5436 63.3122 68.8929ZM61.3029 80.1247L59.8287 81.5989L57.8876 79.6577L59.3618 78.1836C60.8337 76.7109 60.8337 74.3153 59.3618 72.8433L47.2678 60.7494C44.725 58.2073 44.725 54.0697 47.2678 51.5276L48.742 50.0534L50.6832 51.9946L49.209 53.4688C47.737 54.9407 47.737 57.3363 49.209 58.8082L61.3029 70.9029C63.8457 73.445 63.8457 77.5819 61.3029 80.1247Z" fill="#FF7F08"/>
<path d="M52.1188 80.0863L40.0249 67.9923C39.6608 67.6282 39.6608 67.0355 40.0249 66.6713L43.5083 63.1879L37.5487 57.2275L34.0653 60.711C30.4146 64.3616 30.4146 70.3013 34.0653 73.952L46.1592 86.0459C46.5233 86.41 46.5233 87.0028 46.1592 87.3669L42.6758 90.8511L48.6362 96.8107L52.1196 93.3273C55.7695 89.6766 55.7695 83.737 52.1188 80.0863ZM50.1096 91.3181L48.6354 92.7922L46.6943 90.8511L48.1684 89.3769C49.6404 87.9049 49.6404 85.5094 48.1684 84.0374L36.0745 71.9427C33.5317 69.4007 33.5317 65.2638 36.0745 62.7209L37.5487 61.2468L39.4899 63.1879L38.0157 64.6621C36.5437 66.1341 36.5437 68.5296 38.0157 70.0016L50.1096 82.0963C52.6524 84.6383 52.6524 88.7752 50.1096 91.3181Z" fill="#FF7F08"/>
<path d="M96.6915 91.3076L83.3728 68.2386C82.7104 67.0908 81.5234 66.4055 80.198 66.4055C78.8725 66.4055 77.6855 67.0908 77.0224 68.2386L63.7037 91.3076C63.0413 92.4554 63.0413 93.826 63.7037 94.9738C64.3668 96.1216 65.5538 96.8069 66.8792 96.8069H93.5167C94.8421 96.8069 96.0292 96.1216 96.6915 94.9738C97.3546 93.826 97.3546 92.4554 96.6915 91.3076ZM94.2308 93.5529C94.1591 93.6765 93.9467 93.9651 93.5167 93.9651H66.8792C66.4493 93.9651 66.2361 93.6765 66.1651 93.5529C66.0933 93.4286 65.9497 93.1 66.1651 92.7277L79.4838 69.6595C79.6984 69.2873 80.0544 69.2466 80.198 69.2466C80.3408 69.2466 80.6968 69.2873 80.9121 69.6595L94.2308 92.7277C94.4455 93.1 94.3026 93.4286 94.2308 93.5529Z" fill="#FF7F08"/>
<path d="M78.777 76.1433H81.6188V86.8926H78.777V76.1433Z" fill="#FF7F08"/>
<path d="M78.777 88.7871H81.6188V91.6289H78.777V88.7871Z" fill="#FF7F08"/>
<path d="M91.5984 7.38868H71.6962V4.54688H91.5984V7.38868ZM69.8016 7.38868H66.9606V4.54688H69.8016V7.38868ZM65.066 7.38868H62.2242V4.54688H65.066V7.38868Z" fill="black"/>
<path d="M79.8694 39.3101H62.5181V36.4683H79.8694V39.3101ZM60.6235 39.3101H57.7825V36.4683H60.6235V39.3101ZM55.8879 39.3101H53.0461V36.4683H55.8879V39.3101Z" fill="black"/>
</g>
<defs>
<clipPath id="clip0">
<rect width="97" height="97" fill="white"/>
</clipPath>
</defs>
</svg>
