<svg width="102" height="102" viewBox="0 0 102 102" fill="none" xmlns="http://www.w3.org/2000/svg">
<g clip-path="url(#clip0)">
<path d="M0 12.75V25.5H8.5V17H17V8.5H4.25C3.12283 8.5 2.04183 8.94777 1.2448 9.7448C0.447767 10.5418 0 11.6228 0 12.75H0Z" fill="#FF7F08"/>
<path d="M97.75 8.5H85V17H93.5V25.5H102V12.75C102 11.6228 101.552 10.5418 100.755 9.7448C99.9582 8.94777 98.8772 8.5 97.75 8.5Z" fill="#FF7F08"/>
<path d="M8.5 76.5H0V89.25C0 90.3772 0.447767 91.4582 1.2448 92.2552C2.04183 93.0522 3.12283 93.5 4.25 93.5H17V85H8.5V76.5Z" fill="#FF7F08"/>
<path d="M93.5 85H85V93.5H97.75C98.8772 93.5 99.9582 93.0522 100.755 92.2552C101.552 91.4582 102 90.3772 102 89.25V76.5H93.5V85Z" fill="#FF7F08"/>
<path d="M76.5 55.25C78.8472 55.25 80.75 53.3472 80.75 51C80.75 48.6528 78.8472 46.75 76.5 46.75C74.1528 46.75 72.25 48.6528 72.25 51C72.25 53.3472 74.1528 55.25 76.5 55.25Z" fill="black"/>
<path d="M25.5 55.25C27.8472 55.25 29.75 53.3472 29.75 51C29.75 48.6528 27.8472 46.75 25.5 46.75C23.1528 46.75 21.25 48.6528 21.25 51C21.25 53.3472 23.1528 55.25 25.5 55.25Z" fill="black"/>
<path d="M51 34C53.3472 34 55.25 32.0972 55.25 29.75C55.25 27.4028 53.3472 25.5 51 25.5C48.6528 25.5 46.75 27.4028 46.75 29.75C46.75 32.0972 48.6528 34 51 34Z" fill="black"/>
<path d="M51 76.5C53.3472 76.5 55.25 74.5972 55.25 72.25C55.25 69.9028 53.3472 68 51 68C48.6528 68 46.75 69.9028 46.75 72.25C46.75 74.5972 48.6528 76.5 51 76.5Z" fill="black"/>
<path d="M21.25 29.75V38.25H29.75V34H34V25.5H25.5C24.3728 25.5 23.2918 25.9478 22.4948 26.7448C21.6978 27.5418 21.25 28.6228 21.25 29.75Z" fill="black"/>
<path d="M76.5 25.5H68V34H72.25V37.7187H80.75V29.75C80.75 28.6228 80.3022 27.5418 79.5052 26.7448C78.7082 25.9478 77.6272 25.5 76.5 25.5Z" fill="black"/>
<path d="M29.75 63.75H21.25V72.25C21.25 73.3772 21.6978 74.4582 22.4948 75.2552C23.2918 76.0522 24.3728 76.5 25.5 76.5H34V68H29.75V63.75Z" fill="black"/>
<path d="M72.25 68H68V76.5H76.5C77.6272 76.5 78.7082 76.0522 79.5052 75.2552C80.3022 74.4582 80.75 73.3772 80.75 72.25V64.2812H72.25V68Z" fill="black"/>
<path d="M51 38.25C48.4783 38.25 46.0132 38.9978 43.9165 40.3988C41.8198 41.7998 40.1856 43.791 39.2205 46.1208C38.2555 48.4505 38.003 51.0141 38.495 53.4874C38.987 55.9607 40.2013 58.2325 41.9844 60.0156C43.7675 61.7987 46.0393 63.0131 48.5126 63.505C50.9859 63.997 53.5495 63.7445 55.8792 62.7795C58.209 61.8145 60.2003 60.1803 61.6012 58.0835C63.0022 55.9868 63.75 53.5217 63.75 51C63.7461 47.6197 62.4015 44.379 60.0113 41.9887C57.621 39.5985 54.3803 38.2539 51 38.25ZM51 55.25C50.1594 55.25 49.3377 55.0007 48.6388 54.5337C47.9399 54.0668 47.3952 53.403 47.0735 52.6264C46.7518 51.8498 46.6677 50.9953 46.8317 50.1709C46.9957 49.3464 47.4004 48.5892 47.9948 47.9948C48.5892 47.4004 49.3465 46.9957 50.1709 46.8317C50.9953 46.6677 51.8498 46.7518 52.6264 47.0735C53.403 47.3952 54.0668 47.9399 54.5338 48.6388C55.0007 49.3377 55.25 50.1594 55.25 51C55.2487 52.1268 54.8006 53.2071 54.0038 54.0038C53.2071 54.8006 52.1268 55.2487 51 55.25Z" fill="black"/>
</g>
<defs>
<clipPath id="clip0">
<rect width="102" height="102" fill="white"/>
</clipPath>
</defs>
</svg>
