<svg width="119" height="119" viewBox="0 0 119 119" fill="none" xmlns="http://www.w3.org/2000/svg">
<path d="M117.29 111.916H1.70977C0.765293 111.916 0 111.15 0 110.206V8.79449C0 7.85001 0.765293 7.08472 1.70977 7.08472H105.439C106.384 7.08472 107.149 7.85001 107.149 8.79449V59.3538H117.29C118.235 59.3538 119 60.119 119 61.0635V110.206C119 111.15 118.235 111.916 117.29 111.916ZM31.1178 108.496H115.58V62.7733H80.2217C79.2773 62.7733 78.512 62.008 78.512 61.0635V57.7719H74.2909C73.3464 57.7719 72.5811 57.0066 72.5811 56.0621C72.5811 55.1176 73.3464 54.3523 74.2909 54.3523H78.512V43.2956C78.512 42.3511 79.2773 41.5858 80.2217 41.5858C81.1662 41.5858 81.9315 42.3511 81.9315 43.2956V59.3538H91.868V10.5043H81.9315V23.0061C81.9315 23.9506 81.1662 24.7159 80.2217 24.7159C79.2773 24.7159 78.512 23.9506 78.512 23.0061V17.7626H51.6351C50.6906 17.7626 49.9253 16.9973 49.9253 16.0528V10.5043H43.6833V18.4465C43.6833 19.391 42.918 20.1562 41.9735 20.1562C41.029 20.1562 40.2637 19.391 40.2637 18.4465V10.5043H38.4131V14.9134C38.4131 15.8579 37.6478 16.6232 36.7033 16.6232H36.1705C36.4762 17.3215 36.6465 18.0929 36.6465 18.9026V23.348C36.6465 26.4906 34.0901 29.0471 30.9475 29.0471C27.805 29.0471 25.2485 26.4906 25.2485 23.348V18.9026C25.2485 18.0922 25.4188 17.3215 25.7245 16.6232H25.1918C24.2473 16.6232 23.482 15.8579 23.482 14.9134V10.5043H17.2687V33.1505C17.2687 34.095 16.5034 34.8603 15.5589 34.8603H13.3362V44.461H40.2637V36.57C40.2637 35.6256 41.029 34.8603 41.9735 34.8603C42.918 34.8603 43.6833 35.6256 43.6833 36.57V54.3516H47.9043C48.8488 54.3516 49.6141 55.1169 49.6141 56.0614C49.6141 57.0059 48.8488 57.7712 47.9043 57.7712H43.6833V66.1491C43.6833 67.0935 42.918 67.8588 41.9735 67.8588C41.029 67.8588 40.2637 67.0935 40.2637 66.1491V47.8805H15.8441V96.9824H29.408C30.3525 96.9824 31.1178 97.7477 31.1178 98.6921V108.496ZM3.41954 108.496H27.6983V100.402H14.1343C13.1898 100.402 12.4246 99.6366 12.4246 98.6921V68.9421H3.41954V108.496ZM3.41954 65.5226H12.4246V47.8805H3.41954V65.5226ZM101.218 59.3538H103.73V10.5043H101.218V59.3538ZM95.2875 59.3538H97.7988V10.5043H95.2875V59.3538ZM3.41954 43.8653H9.91667V34.8603H3.41954V43.8653ZM11.6264 31.4407H13.8491V10.5043H3.41954V31.4407H11.6264ZM30.9468 16.6232C29.6898 16.6232 28.6674 17.6463 28.6674 18.9026V23.348C28.6674 24.6051 29.6898 25.6275 30.9468 25.6275C32.2039 25.6275 33.2263 24.6051 33.2263 23.348V18.9026C33.2263 17.6463 32.2039 16.6232 30.9468 16.6232ZM53.3448 14.343H78.512V10.5043H53.3448V14.343ZM30.9468 13.2036H34.9935V10.5043H26.9002V13.2036H30.9468ZM68.3607 103.422H54.6518C53.7073 103.422 52.942 102.657 52.942 101.712V70.3811C52.942 69.4366 53.7073 68.6713 54.6518 68.6713H68.3607C69.3052 68.6713 70.0705 69.4366 70.0705 70.3811V86.047V101.713C70.0705 102.657 69.3045 103.422 68.3607 103.422ZM56.3615 100.003H66.6509V98.2927H60.5826C59.6381 98.2927 58.8729 97.5275 58.8729 96.583V75.5104C58.8729 74.5659 59.6381 73.8006 60.5826 73.8006H66.6509V72.0909H56.3615V100.003ZM62.2924 94.8732H66.6509V77.2202H62.2924V94.8732ZM105.439 102.396C104.495 102.396 103.73 101.631 103.73 100.686V71.2784C103.73 70.3339 104.495 69.5686 105.439 69.5686C106.384 69.5686 107.149 70.3339 107.149 71.2784V76.5828C108.038 76.6429 108.741 77.3836 108.741 78.2884V93.6764C108.741 94.5812 108.039 95.3219 107.149 95.382V100.686C107.149 101.631 106.384 102.396 105.439 102.396ZM88.9566 100.344C83.5188 100.344 79.2595 94.4868 79.2595 87.0083C79.2595 79.5297 83.5188 73.6721 88.9566 73.6721C94.3943 73.6721 98.6537 79.5297 98.6537 87.0083C98.6537 94.4868 94.3943 100.344 88.9566 100.344ZM88.9566 77.0916C85.5535 77.0916 82.679 81.6327 82.679 87.0083C82.679 92.3838 85.5542 96.9249 88.9566 96.9249C92.359 96.9249 95.2342 92.3838 95.2342 87.0083C95.2342 81.6327 92.359 77.0916 88.9566 77.0916Z" fill="black"/>
</svg>
