<svg width="127" height="127" viewBox="0 0 127 127" fill="none" xmlns="http://www.w3.org/2000/svg">
<path d="M125.175 119.439H1.82471C0.816741 119.439 0 118.623 0 117.615V9.38575C0 8.37778 0.816741 7.56104 1.82471 7.56104H112.528C113.536 7.56104 114.353 8.37778 114.353 9.38575V63.344H125.175C126.183 63.344 127 64.1607 127 65.1687V117.615C127 118.623 126.183 119.439 125.175 119.439ZM33.2098 115.79H123.351V66.9934H85.6148C84.6068 66.9934 83.7901 66.1766 83.7901 65.1687V61.6557H79.2852C78.2773 61.6557 77.4605 60.839 77.4605 59.831C77.4605 58.823 78.2773 58.0063 79.2852 58.0063H83.7901V46.2063C83.7901 45.1983 84.6068 44.3815 85.6148 44.3815C86.6228 44.3815 87.4395 45.1983 87.4395 46.2063V63.344H98.044V11.2105H87.4395V24.5528C87.4395 25.5607 86.6228 26.3775 85.6148 26.3775C84.6068 26.3775 83.7901 25.5607 83.7901 24.5528V18.9567H55.1063C54.0984 18.9567 53.2816 18.14 53.2816 17.132V11.2105H46.6199V19.6866C46.6199 20.6946 45.8032 21.5113 44.7952 21.5113C43.7873 21.5113 42.9705 20.6946 42.9705 19.6866V11.2105H40.9955V15.916C40.9955 16.924 40.1787 17.7407 39.1707 17.7407H38.6022C38.9284 18.486 39.1102 19.3093 39.1102 20.1734V24.9177C39.1102 28.2715 36.3818 30.9998 33.028 30.9998C29.6742 30.9998 26.9459 28.2715 26.9459 24.9177V20.1734C26.9459 19.3085 27.1276 18.486 27.4539 17.7407H26.8853C25.8773 17.7407 25.0606 16.924 25.0606 15.916V11.2105H18.4296V35.3791C18.4296 36.3871 17.6129 37.2039 16.6049 37.2039H14.2328V47.45H42.9705V39.0286C42.9705 38.0206 43.7873 37.2039 44.7952 37.2039C45.8032 37.2039 46.6199 38.0206 46.6199 39.0286V58.0056H51.1248C52.1328 58.0056 52.9495 58.8223 52.9495 59.8303C52.9495 60.8383 52.1328 61.655 51.1248 61.655H46.6199V70.5961C46.6199 71.6041 45.8032 72.4208 44.7952 72.4208C43.7873 72.4208 42.9705 71.6041 42.9705 70.5961V51.0994H16.9092V103.502H31.3851C32.393 103.502 33.2098 104.319 33.2098 105.327V115.79ZM3.64943 115.79H29.5603V107.152H15.0845C14.0766 107.152 13.2598 106.335 13.2598 105.327V73.5769H3.64943V115.79ZM3.64943 69.9275H13.2598V51.0994H3.64943V69.9275ZM108.023 63.344H110.703V11.2105H108.023V63.344ZM101.693 63.344H104.374V11.2105H101.693V63.344ZM3.64943 46.8142H10.5833V37.2039H3.64943V46.8142ZM12.408 33.5544H14.7802V11.2105H3.64943V33.5544H12.408ZM33.0273 17.7407C31.6858 17.7407 30.5946 18.8326 30.5946 20.1734V24.9177C30.5946 26.2592 31.6858 27.3504 33.0273 27.3504C34.3688 27.3504 35.46 26.2592 35.46 24.9177V20.1734C35.46 18.8326 34.3688 17.7407 33.0273 17.7407ZM56.931 15.3073H83.7901V11.2105H56.931V15.3073ZM33.0273 14.0913H37.346V11.2105H28.7086V14.0913H33.0273ZM72.9564 110.375H58.3258C57.3179 110.375 56.5011 109.558 56.5011 108.55V75.1126C56.5011 74.1047 57.3179 73.2879 58.3258 73.2879H72.9564C73.9644 73.2879 74.7811 74.1047 74.7811 75.1126V108.551C74.7811 109.558 73.9636 110.375 72.9564 110.375ZM60.1506 106.725H71.1317V104.901H64.6554C63.6474 104.901 62.8307 104.084 62.8307 103.076V80.5868C62.8307 79.5788 63.6474 78.762 64.6554 78.762H71.1317V76.9373H60.1506V106.725ZM66.4801 101.251H71.1317V82.4115H66.4801V101.251ZM112.528 109.28C111.52 109.28 110.703 108.463 110.703 107.455V76.0702C110.703 75.0623 111.52 74.2455 112.528 74.2455C113.536 74.2455 114.353 75.0623 114.353 76.0702V81.7312C115.301 81.7954 116.052 82.5859 116.052 83.5516V99.974C116.052 100.94 115.302 101.73 114.353 101.794V107.455C114.353 108.463 113.536 109.28 112.528 109.28ZM94.9369 107.09C89.1336 107.09 84.5878 100.839 84.5878 92.8576C84.5878 84.8763 89.1336 78.6248 94.9369 78.6248C100.74 78.6248 105.286 84.8763 105.286 92.8576C105.286 100.839 100.74 107.09 94.9369 107.09ZM94.9369 82.2743C91.305 82.2743 88.2373 87.1207 88.2373 92.8576C88.2373 98.5945 91.3057 103.441 94.9369 103.441C98.5681 103.441 101.636 98.5945 101.636 92.8576C101.636 87.1207 98.5681 82.2743 94.9369 82.2743Z" fill="#D9D9D9"/>
<line x1="20" y1="54" x2="40" y2="54" stroke="#FF7F08" stroke-width="2"/>
<line x1="39" y1="76" x2="39" y2="55" stroke="#FF7F08" stroke-width="2"/>
<line x1="40" y1="75" x2="50" y2="75" stroke="#FF7F08" stroke-width="2"/>
<line x1="51" y1="64" x2="51" y2="76" stroke="#FF7F08" stroke-width="2"/>
<line x1="50" y1="64" x2="81" y2="64" stroke="#FF7F08" stroke-width="2"/>
<line x1="80" y1="71" x2="80" y2="65" stroke="#FF7F08" stroke-width="2"/>
<line x1="81" y1="70" x2="119" y2="70" stroke="#FF7F08" stroke-width="2"/>
<line x1="118" y1="112" x2="118" y2="70" stroke="#FF7F08" stroke-width="2"/>
<line x1="119" y1="113" x2="37" y2="113" stroke="#FF7F08" stroke-width="2"/>
<line x1="38" y1="100" x2="38" y2="112" stroke="#FF7F08" stroke-width="2"/>
<line x1="37" y1="101" x2="20" y2="101" stroke="#FF7F08" stroke-width="2"/>
<line x1="21" y1="55" x2="21" y2="100" stroke="#FF7F08" stroke-width="2"/>
</svg>
