<svg width="124" height="124" viewBox="0 0 124 124" fill="none" xmlns="http://www.w3.org/2000/svg">
<g clip-path="url(#clip0)">
<path d="M3.66592 15.2909H38.8172V42.6789H25.1232V46.3448H42.4831V15.2909H85.2907V11.625H0V44.5124H3.66592V15.2909Z" fill="black"/>
<path d="M3.66592 50.3342H0V112.334H56.1771V108.668H23.074V87.1032H36.769V83.4373H19.4091V108.668H3.66592V63.8125H54.3446V87.2111H58.0105V60.1466H3.66592V50.3342Z" fill="black"/>
<path d="M91.1126 11.625V15.2909H120.334V32.9744H71.8124V50.3343H75.4783V36.6403H120.334V108.668H87.1232V79.3391H112.463V75.6741H98.769V58.2064H79.4678V61.8713H95.1031V75.6741H83.4572V108.668H62V112.334H124V11.625L91.1126 11.625Z" fill="black"/>
<path d="M7.76324 46.3448H19.1924V34.699H25.0153V19.3882H7.76324V46.3448ZM15.5265 42.6789H11.4292V34.699H15.5274V42.6789H15.5265ZM11.4292 23.0541H21.3494V31.034H11.4292V23.0541Z" fill="black"/>
<path d="M112.355 104.571V83.4375H91.2214V104.571H112.355ZM108.689 100.905H102.651V87.1034H108.689V100.905ZM94.8864 87.1034H98.9847V100.905H94.8864V87.1034Z" fill="black"/>
<path d="M46.3647 67.9109H7.76324V79.3401H46.3647V67.9109ZM42.6997 75.6741H11.4292V71.5759H42.6997V75.6741Z" fill="black"/>
<path d="M79 105V73H91V65H76.5V55H104V73H116V39.5H110.5V69.5H107.5V39.5H79V45H102.5V50.5H69V28.5H116V19H46.5V25.5H65.5V32.5H46.5V38H64V45H46.5V50.5" stroke="#FF7F08" stroke-width="2"/>
</g>
<defs>
<clipPath id="clip0">
<rect width="124" height="124" fill="white"/>
</clipPath>
</defs>
</svg>
